<?xml version="1.0" encoding="iso-8859-1"?>
<!-- Uploaded to: SVG Repo, www.svgrepo.com, Generator: SVG Repo Mixer Tools -->
<!DOCTYPE svg PUBLIC "-//W3C//DTD SVG 1.1//EN" "http://www.w3.org/Graphics/SVG/1.1/DTD/svg11.dtd">
<svg fill="#000000" height="800px" width="800px" version="1.1" id="Capa_1" xmlns="http://www.w3.org/2000/svg" xmlns:xlink="http://www.w3.org/1999/xlink" 
	 viewBox="0 0 271.985 271.985" xml:space="preserve">
<g>
	<path d="M186.208,130.413c9.515,0,19.03-3.621,26.273-10.864l56.867-56.868c3.515-3.515,3.515-9.214,0-12.729
		c-3.516-3.514-9.213-3.514-12.729,0L218.38,88.194l-7.181-7.18l39.655-39.656c3.515-3.515,3.515-9.214,0-12.729
		c-3.516-3.514-9.213-3.514-12.729,0L198.47,68.285l-7.181-7.181l38.241-38.241c3.515-3.515,3.515-9.214,0-12.729
		c-3.516-3.514-9.213-3.514-12.729,0l-56.867,56.867c-7.018,7.019-10.883,16.35-10.883,26.274c0,0.369,0.016,0.734,0.027,1.101
		l-25.802,25.802L16.655,13.557c-2.361-2.36-5.834-3.22-9.027-2.232c-3.19,0.988-5.57,3.661-6.184,6.944
		c-5.138,27.505,3.607,55.738,23.392,75.523l62.414,62.414l-64.792,64.792c-4.812,4.812-7.461,11.209-7.461,18.014
		s2.649,13.202,7.461,18.014c4.812,4.812,11.209,7.461,18.014,7.461s13.202-2.649,18.014-7.461l64.792-64.792l61.369,61.369
		c4.967,4.966,11.49,7.449,18.014,7.449s13.047-2.483,18.014-7.449c9.933-9.933,9.933-26.095,0-36.027l-61.37-61.37l25.818-25.818
		C185.485,130.398,185.846,130.413,186.208,130.413z M207.946,240.874c-2.914,2.914-7.656,2.914-10.57,0l-61.37-61.369l10.57-10.571
		l61.37,61.37C210.861,233.218,210.861,237.96,207.946,240.874z M45.757,244.297c-2.914,2.914-7.656,2.914-10.57,0
		c-2.915-2.914-2.915-7.656,0-10.57l119.994-119.995c1.372,2.071,2.958,4.021,4.755,5.817c1.81,1.81,3.761,3.393,5.818,4.75
		L45.757,244.297z M91.088,113.446l-10.445,10.445c-0.042,0.042-0.078,0.088-0.119,0.131L37.565,81.063
		C26.577,70.076,19.912,55.782,18.354,40.712L91.088,113.446z M93.371,136.62l10.445-10.445l6.732,6.732l-10.57,10.571l-6.738-6.739
		C93.283,136.697,93.329,136.662,93.371,136.62z M172.663,79.729l5.897-5.897l27.09,27.09l-5.898,5.898
		c-7.469,7.469-19.621,7.469-27.09,0C165.194,99.352,165.194,87.198,172.663,79.729z"/>
</g>
</svg>